<svg id="Слой_3" data-name="Слой 3" xmlns="http://www.w3.org/2000/svg" viewBox="0 0 486.4 467.43">
  <defs>
    <style>
      .cls-1 {
        fill: #fff;
      }

      .cls-2 {
        fill: #f2f2f2;
      }
    </style>
  </defs>
  <g id="Слой_1" data-name="Слой 1">
    <circle class="cls-1" cx="243.2" cy="222.3" r="83.36"/>
    <path class="cls-1" d="M297.07,161.64a83.82,83.82,0,0,1,28.06,25.79l47.6-74.27Z" transform="translate(-13 -12)"/>
    <path class="cls-1" d="M327.55,277.43a83.87,83.87,0,0,1-27.94,28.06l78,50Z" transform="translate(-13 -12)"/>
    <path class="cls-1" d="M211,164.28l-68.44-43.85,43.83,68.38A84,84,0,0,1,211,164.28Z" transform="translate(-13 -12)"/>
    <path class="cls-1" d="M186.26,279.67l-48.59,75.76,76.6-49.1A83.74,83.74,0,0,1,186.26,279.67Z" transform="translate(-13 -12)"/>
    <path class="cls-1" d="M172.84,234.31A83.14,83.14,0,0,1,177.78,206L13,234.31l164.78,28.32A83.09,83.09,0,0,1,172.84,234.31Z" transform="translate(-13 -12)"/>
    <path class="cls-1" d="M499.4,234.31,334.62,206a83.64,83.64,0,0,1,0,56.65Z" transform="translate(-13 -12)"/>
    <path class="cls-1" d="M256.2,317.67a83.22,83.22,0,0,1-28.67-5.06L256.2,479.43l28.67-166.8A83.2,83.2,0,0,1,256.2,317.67Z" transform="translate(-13 -12)"/>
    <path class="cls-1" d="M256.2,150.94a83.42,83.42,0,0,1,24.51,3.67L256.2,12,231.69,154.61A83.42,83.42,0,0,1,256.2,150.94Z" transform="translate(-13 -12)"/>
    <circle class="cls-2" cx="243.2" cy="222.3" r="75.23"/>
    <path d="M196.34,204.32h4V228.6h-4Zm2.12,10.37h13.81v3.83H198.46Zm11.43-10.37h4V228.6h-4Z" transform="translate(-13 -12)"/>
    <path d="M226,204.32h2.91L238,228.6h-4.29l-6.28-18.08L221.2,228.6h-4.29Zm-4.8,15.85H234V224H221.2Z" transform="translate(-13 -12)"/>
    <path d="M242.2,220.43a6.08,6.08,0,0,1-2.49-2.77,10.33,10.33,0,0,1-.85-4.39v-9h4v9.16a4.32,4.32,0,0,0,1,3,3.62,3.62,0,0,0,2.79,1.06,4.81,4.81,0,0,0,3.43-1.14,4.27,4.27,0,0,0,1.22-3.25v-1.92h1.06v2.89a10,10,0,0,1-.72,4,5.43,5.43,0,0,1-2.12,2.52,6.24,6.24,0,0,1-3.37.87A7.7,7.7,0,0,1,242.2,220.43Zm9.07-16.15h4v24.28h-4Z" transform="translate(-13 -12)"/>
    <path d="M267.71,204.32h2.91l9.12,24.28h-4.29l-6.25-18.08-6.28,18.08H258.6Zm-4.82,15.85h12.77V224H262.89Z" transform="translate(-13 -12)"/>
    <path d="M279.07,204.32h17.47v3.83H279.07Zm6.75,2h4v22.29h-4Z" transform="translate(-13 -12)"/>
    <path d="M299.54,204.32h4V228.6h-4Zm1.92,20.46h7.74a3.24,3.24,0,0,0,1.72-.43,2.76,2.76,0,0,0,1.12-1.22,4.39,4.39,0,0,0,.39-1.89,4.45,4.45,0,0,0-.39-1.93,2.8,2.8,0,0,0-1.12-1.24,3.35,3.35,0,0,0-1.72-.42h-7.69v-3.83h7.57a8.29,8.29,0,0,1,4,.9,6.15,6.15,0,0,1,2.59,2.56,9,9,0,0,1,0,7.88,6.09,6.09,0,0,1-2.59,2.56,8.39,8.39,0,0,1-4,.88h-7.57Z" transform="translate(-13 -12)"/>
    <path d="M230.49,269.63V250.37l.4.44L220.2,269.63h-4.1V245.36H220V264.9l-.4-.43,10.71-19.11h4.09v24.27Z" transform="translate(-13 -12)"/>
    <path d="M240,245.36h4v24.28h-4Zm1.67,0H254v3.83H241.71Z" transform="translate(-13 -12)"/>
    <path d="M257.66,245.36h4v24.28h-4Zm1.92,11h7.77a3.24,3.24,0,0,0,1.69-.44,3,3,0,0,0,1.14-1.26,4.27,4.27,0,0,0,.41-1.89,4.44,4.44,0,0,0-.4-1.9,3,3,0,0,0-1.14-1.27,3.16,3.16,0,0,0-1.7-.45h-7.77v-3.83h7.62a8,8,0,0,1,3.91.93,6.64,6.64,0,0,1,2.62,2.61,8.6,8.6,0,0,1,0,7.81,6.62,6.62,0,0,1-2.62,2.6,8.06,8.06,0,0,1-3.91.91h-7.65Z" transform="translate(-13 -12)"/>
    <path d="M278.62,245.36H283l7.13,17.39-2.53,3.39Zm12.58,19.26a12.8,12.8,0,0,1-1.48,2.93,5.3,5.3,0,0,1-4.6,2.34H282.3V266h2.32a2.64,2.64,0,0,0,1.37-.35,3.3,3.3,0,0,0,1.07-1,7.38,7.38,0,0,0,.83-1.72l6.2-17.6h4.2Z" transform="translate(-13 -12)"/>
  </g>
</svg>
